# xmcd
#
# Track frame offsets:
#	150
#	16132
#	34824
#	54474
#	70038
#	88941
#	102678
#	120207
#	139839
#	158665
#	181107
#	202510
#
# Disc length: 2955 seconds
#
# Revision: 0
# Processed by: cddbd v1.5.1PL0 Copyright (c) Steve Scherf et al.
# Submitted via: dBpowerAMP V4.0
#
DISCID=910b890c
DTITLE=Big Roc Collective - A Tribute to the Dave Matthews Band
DYEAR=2004
DGENRE=Bluegrass
TTITLE0=So Much To Say
TTITLE1=Too Much
TTITLE2=Tripping Billies
TTITLE3=Where Are You Going
TTITLE4=Gravedigger
TTITLE5=What Would You Say
TTITLE6=Grace is Gone
TTITLE7=Ants Marching
TTITLE8=Grey Street
TTITLE9=Typical Situation
TTITLE10=Crash
TTITLE11=Don't Drink the Water
EXTD=
EXTT0=
EXTT1=
EXTT2=
EXTT3=
EXTT4=
EXTT5=
EXTT6=
EXTT7=
EXTT8=
EXTT9=
EXTT10=
EXTT11=
PLAYORDER=
